<svg width="177" height="55" viewBox="0 0 177 55" fill="none" xmlns="http://www.w3.org/2000/svg">
<path d="M72.75 15.94C74.97 15.94 76.91 16.38 78.57 17.26C80.23 18.14 81.51 19.38 82.41 20.98C83.33 22.56 83.79 24.39 83.79 26.47C83.79 28.53 83.33 30.36 82.41 31.96C81.51 33.56 80.22 34.8 78.54 35.68C76.88 36.56 74.95 37 72.75 37H64.86V15.94H72.75ZM72.42 32.56C74.36 32.56 75.87 32.03 76.95 30.97C78.03 29.91 78.57 28.41 78.57 26.47C78.57 24.53 78.03 23.02 76.95 21.94C75.87 20.86 74.36 20.32 72.42 20.32H69.99V32.56H72.42ZM102.437 28.36C102.437 28.84 102.407 29.34 102.347 29.86H90.7369C90.8169 30.9 91.1469 31.7 91.7269 32.26C92.3269 32.8 93.0569 33.07 93.9169 33.07C95.1969 33.07 96.0869 32.53 96.5869 31.45H102.047C101.767 32.55 101.257 33.54 100.517 34.42C99.7969 35.3 98.8869 35.99 97.7869 36.49C96.6869 36.99 95.4569 37.24 94.0969 37.24C92.4569 37.24 90.9969 36.89 89.7169 36.19C88.4369 35.49 87.4369 34.49 86.7169 33.19C85.9969 31.89 85.6369 30.37 85.6369 28.63C85.6369 26.89 85.9869 25.37 86.6869 24.07C87.4069 22.77 88.4069 21.77 89.6869 21.07C90.9669 20.37 92.4369 20.02 94.0969 20.02C95.7169 20.02 97.1569 20.36 98.4169 21.04C99.6769 21.72 100.657 22.69 101.357 23.95C102.077 25.21 102.437 26.68 102.437 28.36ZM97.1869 27.01C97.1869 26.13 96.8869 25.43 96.2869 24.91C95.6869 24.39 94.9369 24.13 94.0369 24.13C93.1769 24.13 92.4469 24.38 91.8469 24.88C91.2669 25.38 90.9069 26.09 90.7669 27.01H97.1869ZM112.673 32.2L116.303 20.26H121.763L115.823 37H109.493L103.553 20.26H109.043L112.673 32.2ZM135.383 37L130.403 28.45H127.103V37H124.373V16.09H131.123C132.703 16.09 134.033 16.36 135.113 16.9C136.213 17.44 137.033 18.17 137.573 19.09C138.113 20.01 138.383 21.06 138.383 22.24C138.383 23.68 137.963 24.95 137.123 26.05C136.303 27.15 135.063 27.88 133.403 28.24L138.653 37H135.383ZM127.103 26.26H131.123C132.603 26.26 133.713 25.9 134.453 25.18C135.193 24.44 135.563 23.46 135.563 22.24C135.563 21 135.193 20.04 134.453 19.36C133.733 18.68 132.623 18.34 131.123 18.34H127.103V26.26ZM149.794 37.27C148.254 37.27 146.854 36.92 145.594 36.22C144.354 35.52 143.374 34.53 142.654 33.25C141.954 31.95 141.604 30.45 141.604 28.75C141.604 27.07 141.964 25.59 142.684 24.31C143.424 23.01 144.424 22.02 145.684 21.34C146.944 20.64 148.354 20.29 149.914 20.29C151.474 20.29 152.884 20.64 154.144 21.34C155.404 22.02 156.394 23 157.114 24.28C157.854 25.56 158.224 27.05 158.224 28.75C158.224 30.45 157.844 31.95 157.084 33.25C156.344 34.53 155.334 35.52 154.054 36.22C152.774 36.92 151.354 37.27 149.794 37.27ZM149.794 34.87C150.774 34.87 151.694 34.64 152.554 34.18C153.414 33.72 154.104 33.03 154.624 32.11C155.164 31.19 155.434 30.07 155.434 28.75C155.434 27.43 155.174 26.31 154.654 25.39C154.134 24.47 153.454 23.79 152.614 23.35C151.774 22.89 150.864 22.66 149.884 22.66C148.884 22.66 147.964 22.89 147.124 23.35C146.304 23.79 145.644 24.47 145.144 25.39C144.644 26.31 144.394 27.43 144.394 28.75C144.394 30.09 144.634 31.22 145.114 32.14C145.614 33.06 146.274 33.75 147.094 34.21C147.914 34.65 148.814 34.87 149.794 34.87ZM167.634 37.27C166.374 37.27 165.244 37.06 164.244 36.64C163.244 36.2 162.454 35.6 161.874 34.84C161.294 34.06 160.974 33.17 160.914 32.17H163.734C163.814 32.99 164.194 33.66 164.874 34.18C165.574 34.7 166.484 34.96 167.604 34.96C168.644 34.96 169.464 34.73 170.064 34.27C170.664 33.81 170.964 33.23 170.964 32.53C170.964 31.81 170.644 31.28 170.004 30.94C169.364 30.58 168.374 30.23 167.034 29.89C165.814 29.57 164.814 29.25 164.034 28.93C163.274 28.59 162.614 28.1 162.054 27.46C161.514 26.8 161.244 25.94 161.244 24.88C161.244 24.04 161.494 23.27 161.994 22.57C162.494 21.87 163.204 21.32 164.124 20.92C165.044 20.5 166.094 20.29 167.274 20.29C169.094 20.29 170.564 20.75 171.684 21.67C172.804 22.59 173.404 23.85 173.484 25.45H170.754C170.694 24.59 170.344 23.9 169.704 23.38C169.084 22.86 168.244 22.6 167.184 22.6C166.204 22.6 165.424 22.81 164.844 23.23C164.264 23.65 163.974 24.2 163.974 24.88C163.974 25.42 164.144 25.87 164.484 26.23C164.844 26.57 165.284 26.85 165.804 27.07C166.344 27.27 167.084 27.5 168.024 27.76C169.204 28.08 170.164 28.4 170.904 28.72C171.644 29.02 172.274 29.48 172.794 30.1C173.334 30.72 173.614 31.53 173.634 32.53C173.634 33.43 173.384 34.24 172.884 34.96C172.384 35.68 171.674 36.25 170.754 36.67C169.854 37.07 168.814 37.27 167.634 37.27Z" fill="white"/>
<circle cx="27.5" cy="27.5" r="27.5" fill="#007CED"/>
<path d="M38.1055 21.5C38.1055 20.7025 37.9744 20.0075 37.7124 19.415C37.4504 18.8112 37.0801 18.2928 36.6016 17.8599C36.1344 17.4269 35.5705 17.0737 34.9097 16.8003C34.2489 16.5155 33.5254 16.2933 32.7393 16.1338C31.9531 15.9629 31.11 15.849 30.21 15.792C29.3213 15.7236 28.4041 15.6895 27.4585 15.6895C27.1965 15.6895 26.9572 15.6895 26.7407 15.6895C26.5243 15.6895 26.3192 15.7008 26.1255 15.7236L25.8179 27.3447C26.2508 27.4359 26.7236 27.4985 27.2363 27.5327C27.749 27.5669 28.2788 27.584 28.8257 27.584C29.4979 27.584 30.1929 27.5441 30.9106 27.4644C31.6284 27.3846 32.3291 27.2536 33.0127 27.0713C33.7077 26.889 34.3628 26.6497 34.978 26.3535C35.5933 26.0459 36.1287 25.6699 36.5845 25.2256C37.0516 24.7699 37.4219 24.2344 37.6953 23.6191C37.9688 23.0039 38.1055 22.2975 38.1055 21.5ZM40.9424 32.3179C40.9424 32.3407 40.9481 32.4033 40.9595 32.5059C40.9709 32.597 40.9766 32.7337 40.9766 32.916C40.9766 33.8389 40.8341 34.6934 40.5493 35.4795C40.2759 36.2656 39.8828 36.9435 39.3701 37.5132C38.8574 38.0715 38.2365 38.5101 37.5073 38.8291C36.7782 39.1481 35.9635 39.3076 35.0635 39.3076H35.0122C34.1805 39.2848 33.4456 39.1481 32.8076 38.8975C32.181 38.6468 31.6284 38.3164 31.1499 37.9062C30.6828 37.4847 30.2897 36.9948 29.9707 36.4365C29.6517 35.8783 29.3953 35.2801 29.2017 34.6421C29.008 33.9927 28.8656 33.3205 28.7744 32.6255C28.6947 31.9305 28.6548 31.2412 28.6548 30.5576C28.6548 30.3525 28.6605 30.1532 28.6719 29.9595C28.6833 29.7544 28.689 29.5721 28.689 29.4126C28.1763 29.4126 27.675 29.3898 27.1851 29.3442C26.7065 29.2987 26.2394 29.2417 25.7837 29.1733L25.5273 38.0259C25.5273 38.2993 25.4362 38.5158 25.2539 38.6753C25.083 38.8234 24.8722 38.8975 24.6216 38.8975C24.6102 38.8975 24.3766 38.9032 23.9209 38.9146C23.4766 38.9146 22.9012 38.9259 22.1948 38.9487C21.4884 38.9715 20.708 39.0114 19.8535 39.0684C18.999 39.1253 18.1616 39.2051 17.3413 39.3076H17.2388C16.9767 39.3076 16.7603 39.2165 16.5894 39.0342C16.4185 38.8633 16.333 38.6639 16.333 38.436C16.333 38.2082 16.4014 38.0088 16.5381 37.8379C16.6862 37.667 16.8742 37.5645 17.1021 37.5303C17.5236 37.4733 17.9508 37.4277 18.3838 37.3936C18.8281 37.3594 19.2611 37.3252 19.6826 37.291L20.0757 16.2192C19.2326 16.356 18.5946 16.4756 18.1616 16.5781C17.7287 16.6807 17.5008 16.7319 17.478 16.7319C17.3983 16.7889 17.3185 16.8174 17.2388 16.8174C16.9767 16.8174 16.7603 16.7262 16.5894 16.5439C16.4185 16.3617 16.333 16.1452 16.333 15.8945C16.333 15.7008 16.39 15.5299 16.5039 15.3818C16.6178 15.2223 16.7716 15.1141 16.9653 15.0571C16.9995 15.0457 17.2388 14.9774 17.6831 14.8521C18.1274 14.7267 18.7826 14.5957 19.6484 14.459C20.5257 14.3223 21.6081 14.1969 22.8955 14.083C24.1943 13.9691 25.7153 13.9121 27.4585 13.9121C28.575 13.9691 29.6517 14.0488 30.6885 14.1514C31.7367 14.2539 32.7222 14.4134 33.645 14.6299C34.5679 14.835 35.411 15.1141 36.1743 15.4673C36.9377 15.8091 37.5928 16.2534 38.1396 16.8003C38.6979 17.3472 39.1252 18.008 39.4214 18.7827C39.729 19.5461 39.8828 20.4518 39.8828 21.5C39.8828 22.3317 39.7518 23.1178 39.4897 23.8584C39.2391 24.5876 38.8859 25.2541 38.4302 25.8579C37.9744 26.4504 37.4219 26.9688 36.7725 27.4131C36.1344 27.846 35.4338 28.1878 34.6704 28.4385C34.6476 28.7005 34.6305 28.9683 34.6191 29.2417C34.6077 29.5151 34.6021 29.7943 34.6021 30.0791C34.6021 30.3184 34.6077 30.6545 34.6191 31.0874C34.6305 31.5203 34.659 31.9932 34.7046 32.5059C34.7502 33.0186 34.8185 33.5426 34.9097 34.0781C35.0122 34.6136 35.1432 35.1035 35.3027 35.5479C35.4736 35.9808 35.6844 36.3397 35.9351 36.6245C36.1857 36.8979 36.4876 37.0347 36.8408 37.0347C37.2965 37.0347 37.6725 36.8809 37.9688 36.5732C38.265 36.2656 38.5042 35.8953 38.6865 35.4624C38.8688 35.0181 38.9941 34.5623 39.0625 34.0952C39.1423 33.6281 39.1821 33.235 39.1821 32.916C39.1821 32.7907 39.1764 32.6882 39.165 32.6084C39.1536 32.5286 39.1479 32.4546 39.1479 32.3862C39.1479 32.1242 39.2391 31.9134 39.4214 31.7539C39.6151 31.5944 39.8258 31.5146 40.0537 31.5146C40.2816 31.5146 40.481 31.5944 40.6519 31.7539C40.8228 31.902 40.9196 32.09 40.9424 32.3179Z" fill="white"/>
</svg>
